<svg width="25" height="15" viewBox="0 0 25 15" fill="none" xmlns="http://www.w3.org/2000/svg"><path fill-rule="evenodd" clip-rule="evenodd" d="M21.986 10.56s1.94 1.917 2.42 2.804a.12.12 0 01.022.042c.196.327.244.584.148.774-.162.313-.71.47-.897.483h-3.43c-.238 0-.735-.062-1.34-.48-.462-.323-.921-.854-1.367-1.374-.664-.771-1.24-1.441-1.821-1.441a.656.656 0 00-.216.036c-.44.14-1 .767-1 2.438 0 .524-.413.821-.702.821h-1.57c-.536 0-3.322-.187-5.793-2.792C3.412 8.68.693 2.283.667 2.226c-.17-.414.186-.64.57-.64H4.7c.464 0 .616.282.721.534.123.289.576 1.446 1.32 2.745C7.946 6.98 8.686 7.84 9.278 7.84c.111 0 .22-.029.317-.084.773-.425.629-3.185.593-3.754 0-.11-.002-1.232-.398-1.774-.283-.39-.765-.54-1.057-.596.078-.112.244-.285.456-.387.53-.264 1.486-.303 2.435-.303h.527c1.03.015 1.296.08 1.67.176.754.18.768.668.702 2.331-.019.475-.04 1.01-.04 1.64 0 .135-.005.285-.005.437-.023.854-.053 1.815.55 2.21a.492.492 0 00.26.074c.208 0 .834 0 2.53-2.91.743-1.285 1.32-2.8 1.359-2.915.033-.063.134-.242.257-.314a.575.575 0 01.283-.067h4.074c.444 0 .745.067.804.235.098.272-.02 1.104-1.88 3.619-.313.419-.587.781-.829 1.098-1.686 2.213-1.686 2.324.1 4.004z" fill="#fff"/></svg>