<svg width="22" height="16" viewBox="0 0 22 16" fill="none" xmlns="http://www.w3.org/2000/svg"><path d="M20.681 2.748A2.625 2.625 0 0018.83.895C17.194.453 10.624.453 10.624.453s-6.57 0-8.205.442A2.625 2.625 0 00.566 2.748a27.097 27.097 0 00-.442 5.055 27.037 27.037 0 00.442 5.055A2.625 2.625 0 002.42 14.71c1.635.443 8.205.443 8.205.443s6.57 0 8.205-.443a2.625 2.625 0 001.852-1.852 27.09 27.09 0 00.443-5.055 27.092 27.092 0 00-.443-5.055zM8.524 10.953v-6.3l5.452 3.15-5.452 3.15z" fill="#fff"/></svg>