<svg width="25" height="25" viewBox="0 0 25 25" fill="none" xmlns="http://www.w3.org/2000/svg"><g clip-path="url(#clip0_10112_47)" fill="#fff"><path d="M17.123.803h-9a7.5 7.5 0 00-7.5 7.5v9a7.5 7.5 0 007.5 7.5h9a7.5 7.5 0 007.5-7.5v-9a7.5 7.5 0 00-7.5-7.5zm5.25 16.5a5.256 5.256 0 01-5.25 5.25h-9a5.256 5.256 0 01-5.25-5.25v-9a5.256 5.256 0 015.25-5.25h9a5.256 5.256 0 015.25 5.25v9z"/><path d="M12.623 6.803a6 6 0 10.001 12 6 6 0 000-12zm0 9.75a3.755 3.755 0 01-3.75-3.75 3.754 3.754 0 013.75-3.75 3.754 3.754 0 013.75 3.75 3.755 3.755 0 01-3.75 3.75zm6.449-9.4a.8.8 0 100-1.6.8.8 0 000 1.6z"/></g><defs><clipPath id="clip0_10112_47"><path fill="#fff" transform="translate(.624 .803)" d="M0 0h24v24H0z"/></clipPath></defs></svg>